<svg width="52" height="52" viewBox="0 0 52 52" fill="none" xmlns="http://www.w3.org/2000/svg">
<rect x="1" y="1" width="50" height="50" rx="25" fill="#000A14" stroke="white" stroke-width="2"/>
<path d="M33.2774 19.7435C31.9159 19.1578 30.4791 18.7402 29.0029 18.501C28.9895 18.4987 28.9756 18.5004 28.9633 18.5058C28.951 18.5113 28.9408 18.5203 28.9342 18.5315C28.7496 18.8392 28.5451 19.2406 28.4019 19.556C26.7878 19.3295 25.182 19.3295 23.601 19.556C23.4579 19.2335 23.2459 18.8392 23.0605 18.5315C23.0537 18.5205 23.0434 18.5118 23.0312 18.5064C23.0189 18.5009 23.0052 18.4991 22.9918 18.5011C21.5155 18.7397 20.0786 19.1573 18.7173 19.7434C18.7056 19.748 18.6958 19.756 18.6892 19.7661C15.9667 23.5776 15.2209 27.2955 15.5868 30.9672C15.5878 30.9762 15.5908 30.9849 15.5955 30.9928C15.6002 31.0007 15.6065 31.0077 15.6141 31.0132C17.4103 32.2494 19.1502 32.9999 20.8579 33.4973C20.8712 33.501 20.8853 33.5008 20.8985 33.4968C20.9117 33.4927 20.9232 33.485 20.9316 33.4746C21.3355 32.9577 21.6955 32.4126 22.0043 31.8394C22.0086 31.8316 22.011 31.823 22.0114 31.8142C22.0119 31.8054 22.0103 31.7966 22.0069 31.7885C22.0034 31.7803 21.9982 31.7729 21.9915 31.7667C21.9848 31.7606 21.9767 31.7558 21.9679 31.7528C21.3967 31.5497 20.8529 31.3022 20.3297 31.0211C20.3202 31.0159 20.3122 31.0085 20.3064 30.9996C20.3006 30.9908 20.2973 30.9808 20.2966 30.9704C20.2959 30.9601 20.298 30.9497 20.3026 30.9403C20.3073 30.9309 20.3143 30.9227 20.3231 30.9164C20.4332 30.8391 20.5433 30.7587 20.6484 30.6775C20.6577 30.6702 20.6691 30.6656 20.6811 30.6641C20.693 30.6626 20.7053 30.6642 20.7163 30.6688C24.1531 32.1393 27.8738 32.1393 31.27 30.6688C31.2811 30.6639 31.2934 30.662 31.3056 30.6634C31.3177 30.6648 31.3292 30.6694 31.3387 30.6766C31.4439 30.7578 31.554 30.8391 31.6649 30.9164C31.6737 30.9226 31.6808 30.9308 31.6855 30.9401C31.6902 30.9495 31.6923 30.9598 31.6917 30.9702C31.6912 30.9805 31.6879 30.9905 31.6822 30.9994C31.6765 31.0083 31.6686 31.0157 31.6591 31.021C31.1358 31.3075 30.5875 31.552 30.0203 31.752C30.0114 31.7551 30.0035 31.76 29.9968 31.7662C29.9901 31.7725 29.9849 31.78 29.9816 31.7882C29.9782 31.7965 29.9767 31.8053 29.9773 31.8141C29.9778 31.823 29.9803 31.8316 29.9846 31.8394C30.3 32.4118 30.6601 32.9569 31.0565 33.4738C31.0646 33.4845 31.0761 33.4925 31.0893 33.4967C31.1025 33.5009 31.1168 33.5011 31.1302 33.4973C32.8461 32.9998 34.586 32.2493 36.3822 31.0132C36.3899 31.0079 36.3964 31.0012 36.4011 30.9934C36.4058 30.9856 36.4087 30.9769 36.4096 30.968C36.8474 26.723 35.6762 23.0356 33.3047 19.7668C33.2988 19.7562 33.2891 19.7479 33.2774 19.7434V19.7435ZM22.5175 28.7315C21.4828 28.7315 20.6302 27.8413 20.6302 26.748C20.6302 25.6548 21.4663 24.7646 22.5176 24.7646C23.577 24.7646 24.4213 25.6626 24.4048 26.7481C24.4048 27.8413 23.5687 28.7315 22.5175 28.7315ZM29.4954 28.7315C28.4607 28.7315 27.6081 27.8413 27.6081 26.748C27.6081 25.6548 28.4441 24.7646 29.4954 24.7646C30.5549 24.7646 31.3992 25.6626 31.3826 26.7481C31.3826 27.8413 30.5549 28.7315 29.4954 28.7315Z" fill="white"/>
</svg>
