<svg width="52" height="52" viewBox="0 0 52 52" fill="none" xmlns="http://www.w3.org/2000/svg">
<rect x="1" y="1" width="50" height="50" rx="25" fill="#000A14" stroke="white" stroke-width="2"/>
<path d="M26 17.3926C28.8035 17.3926 29.136 17.4031 30.2438 17.4539C33.0893 17.5834 34.4184 18.9335 34.5479 21.758C34.5986 22.8649 34.6082 23.1974 34.6082 26.0009C34.6082 28.8053 34.5977 29.1369 34.5479 30.2438C34.4175 33.0656 33.0919 34.4184 30.2438 34.5479C29.136 34.5986 28.8053 34.6091 26 34.6091C23.1965 34.6091 22.864 34.5986 21.7571 34.5479C18.9046 34.4175 17.5825 33.0613 17.453 30.2429C17.4023 29.136 17.3917 28.8044 17.3917 26C17.3917 23.1965 17.4031 22.8649 17.453 21.7571C17.5834 18.9335 18.909 17.5825 21.7571 17.453C22.8649 17.4031 23.1965 17.3926 26 17.3926ZM26 15.5C23.1484 15.5 22.7914 15.5122 21.6714 15.563C17.8581 15.738 15.7389 17.8537 15.5639 21.6705C15.5122 22.7914 15.5 23.1484 15.5 26C15.5 28.8516 15.5122 29.2095 15.563 30.3295C15.738 34.1427 17.8537 36.262 21.6705 36.437C22.7914 36.4877 23.1484 36.5 26 36.5C28.8516 36.5 29.2095 36.4877 30.3295 36.437C34.1392 36.262 36.2638 34.1462 36.4361 30.3295C36.4877 29.2095 36.5 28.8516 36.5 26C36.5 23.1484 36.4877 22.7914 36.437 21.6714C36.2655 17.8616 34.1471 15.7389 30.3304 15.5639C29.2095 15.5122 28.8516 15.5 26 15.5V15.5ZM26 20.6082C23.0224 20.6082 20.6082 23.0224 20.6082 26C20.6082 28.9776 23.0224 31.3926 26 31.3926C28.9776 31.3926 31.3918 28.9785 31.3918 26C31.3918 23.0224 28.9776 20.6082 26 20.6082ZM26 29.5C24.0671 29.5 22.5 27.9338 22.5 26C22.5 24.0671 24.0671 22.5 26 22.5C27.9329 22.5 29.5 24.0671 29.5 26C29.5 27.9338 27.9329 29.5 26 29.5ZM31.6052 19.1356C30.9088 19.1356 30.3444 19.7 30.3444 20.3956C30.3444 21.0912 30.9088 21.6556 31.6052 21.6556C32.3009 21.6556 32.8644 21.0912 32.8644 20.3956C32.8644 19.7 32.3009 19.1356 31.6052 19.1356Z" fill="white"/>
</svg>
