<svg width="52" height="52" viewBox="0 0 52 52" fill="none" xmlns="http://www.w3.org/2000/svg">
<rect x="1" y="1" width="50" height="50" rx="25" fill="#000A14" stroke="white" stroke-width="2"/>
<path fill-rule="evenodd" clip-rule="evenodd" d="M25.74 22.4902L25.779 23.139L25.1287 23.0596C22.7617 22.755 20.6937 21.7223 18.9379 19.9878L18.0795 19.1271L17.8584 19.7627C17.3902 21.1794 17.6893 22.6756 18.6648 23.6819C19.185 24.238 19.068 24.3174 18.1705 23.9864C17.8584 23.8805 17.5853 23.8011 17.5593 23.8408C17.4682 23.9335 17.7804 25.1384 18.0275 25.615C18.3656 26.2771 19.0549 26.9259 19.8093 27.3098L20.4466 27.6144L19.6922 27.6276C18.9639 27.6276 18.9379 27.6409 19.0159 27.9189C19.276 28.7795 20.3035 29.6932 21.448 30.0904L22.2544 30.3684L21.5521 30.7921C20.5116 31.4012 19.2891 31.7455 18.0665 31.7719C17.4812 31.7852 17 31.8381 17 31.8779C17 32.0103 18.5867 32.7517 19.5102 33.043C22.2804 33.9037 25.5709 33.5329 28.0421 32.0632C29.7979 31.0172 31.5537 28.9384 32.3731 26.9259C32.8153 25.8534 33.2575 23.8937 33.2575 22.9537C33.2575 22.3446 33.2965 22.2651 34.0248 21.5369C34.454 21.1132 34.8572 20.6498 34.9353 20.5174C35.0653 20.2658 35.0523 20.2658 34.389 20.4909C33.2835 20.8881 33.1274 20.8352 33.6737 20.2393C34.0769 19.8156 34.5581 19.0477 34.5581 18.8226C34.5581 18.7829 34.363 18.8491 34.1419 18.9682C33.9078 19.1006 33.3876 19.2992 32.9974 19.4184L32.295 19.6435L31.6578 19.2066C31.3066 18.9682 30.8124 18.7034 30.5522 18.624C29.8889 18.4386 28.8745 18.4651 28.2762 18.6769C26.6504 19.2728 25.623 20.8087 25.74 22.4902Z" fill="white"/>
</svg>
