<svg width="52" height="52" viewBox="0 0 52 52" fill="none" xmlns="http://www.w3.org/2000/svg">
<rect x="1" y="1" width="50" height="50" rx="25" fill="#000A14" stroke="white" stroke-width="2"/>
<path opacity="0.3" d="M26 37.25C32.2132 37.25 37.25 32.2132 37.25 26C37.25 19.7868 32.2132 14.75 26 14.75C19.7868 14.75 14.75 19.7868 14.75 26C14.75 32.2132 19.7868 37.25 26 37.25Z" fill="white"/>
<path fill-rule="evenodd" clip-rule="evenodd" d="M25.6697 37.2452C19.6093 37.0705 14.75 32.1027 14.75 26C14.75 25.896 14.7514 25.7924 14.7542 25.6891C15.5779 25.7679 17.0705 25.9467 17.1408 26.5255C17.2381 27.3261 17.1408 28.327 17.8226 28.6272C18.5043 28.9274 18.6991 27.4262 19.2834 27.8266C19.8677 28.227 21.4261 28.6124 21.4261 29.3203C21.4261 30.028 21.1339 31.1293 21.4261 31.3295C21.7182 31.5297 22.8862 32.9308 22.8865 33.131C22.887 33.3312 23.2982 34.3492 23.1755 34.7383C23.0738 35.0609 22.5607 36.0627 22.0632 36.5182C23.1914 36.9526 24.4045 37.2072 25.6697 37.2451V37.2452ZM21.3534 15.7514C22.7698 15.1082 24.3431 14.75 26 14.75C30.3893 14.75 34.1915 17.2637 36.0456 20.9301C36.0871 21.9052 36.0798 22.7392 36.2952 23.0409C37.3915 24.5751 33.6244 25.6304 34.1967 27.9507C34.4487 28.9744 31.691 28.6496 31.0175 29.608C30.3435 30.5659 28.6968 29.9223 28.315 29.7381C27.9332 29.554 26.4708 30.1677 26.5986 29.1244C26.7257 28.0808 27.6154 28.0195 28.5695 27.5899C29.5231 27.1608 30.8987 25.734 30.2227 25.5475C27.0404 24.6703 25.9547 21.5982 25.9547 21.5982C25.7638 21.5613 25.8117 19.4264 24.9855 19.3651C24.1584 19.3035 23.7131 19.6105 22.5054 19.3651C21.2971 19.1197 21.5518 18.3218 21.3609 16.6032C21.3182 16.2177 21.3202 15.9465 21.3534 15.7514ZM37.249 25.8463C37.2497 25.8974 37.25 25.9487 37.25 26C37.25 32.1759 32.2736 37.1894 26.1119 37.2495C32.2128 37.1879 37.1671 32.1105 37.249 25.8463Z" fill="white"/>
</svg>
