<svg width="52" height="52" viewBox="0 0 52 52" fill="none" xmlns="http://www.w3.org/2000/svg">
<rect x="1" y="1" width="50" height="50" rx="25" fill="#000A14" stroke="white" stroke-width="2"/>
<path fill-rule="evenodd" clip-rule="evenodd" d="M33.0106 20.3598C33.786 20.5576 34.3909 21.1368 34.6006 21.8765C35.149 23.9867 35.1133 27.9762 34.6121 30.1194C34.4047 30.8591 33.7975 31.4361 33.0222 31.6361C30.8331 32.1526 21.0284 32.0889 18.966 31.6361C18.1906 31.4383 17.5858 30.8591 17.3761 30.1194C16.8588 28.1081 16.8945 23.8548 17.3646 21.8875C17.5719 21.1478 18.1791 20.5708 18.9545 20.3708C21.881 19.7883 31.9691 19.9762 33.0106 20.3598ZM24.2535 23.4241L28.9542 25.9959L24.2535 28.5677V23.4241Z" fill="white"/>
</svg>
